<mxfile host="app.diagrams.net" modified="2022-02-15T01:51:10.947Z" agent="5.0 (Windows NT 10.0; WOW64) AppleWebKit/537.36 (KHTML, like Gecko) Chrome/86.0.4240.198 Safari/537.36" etag="VcHa-MTwuqQdyNcPDl98" version="16.5.6" type="github">
  <diagram id="z4nwgwtfK8Rmn1ZGEdLx" name="Page-1">
    <mxGraphModel dx="2016" dy="1105" grid="1" gridSize="10" guides="1" tooltips="1" connect="1" arrows="1" fold="1" page="1" pageScale="1" pageWidth="827" pageHeight="1169" math="0" shadow="0">
      <root>
        <mxCell id="0" />
        <mxCell id="1" parent="0" />
      </root>
    </mxGraphModel>
  </diagram>
</mxfile>
